<mxfile host="app.diagrams.net" modified="2024-04-18T02:24:02.180Z" agent="Mozilla/5.0 (Windows NT 10.0; Win64; x64) AppleWebKit/537.36 (KHTML, like Gecko) Chrome/121.0.0.0 Safari/537.36 Edg/121.0.0.0" version="24.2.5" etag="TEvNJ5VZu2Im9GZnzUM7" type="github">
  <diagram name="第 1 页" id="w4WkGcCFeFClzsda51uL">
    <mxGraphModel>
      <root>
        <mxCell id="0" />
        <mxCell id="1" parent="0" />
      </root>
    </mxGraphModel>
  </diagram>
</mxfile>
